<?xml version="1.0" standalone="no"?>
<!DOCTYPE svg PUBLIC "-//W3C//DTD SVG 20010904//EN"
 "http://www.w3.org/TR/2001/REC-SVG-20010904/DTD/svg10.dtd">
<svg version="1.0" xmlns="http://www.w3.org/2000/svg"
 width="500.000000pt" height="500.000000pt" viewBox="0 0 500.000000 500.000000"
 preserveAspectRatio="xMidYMid meet">

<g transform="translate(0.000000,500.000000) scale(0.100000,-0.100000)"
fill="#000000" stroke="none">
<path d="M0 2500 l0 -2500 2500 0 2500 0 0 2500 0 2500 -2500 0 -2500 0 0
-2500z m2468 315 c99 -23 100 -24 78 -87 -32 -92 -28 -88 -88 -67 -105 36
-177 17 -214 -57 -26 -53 -27 -194 -1 -242 44 -80 144 -93 280 -37 16 7 18 1
15 -70 l-3 -78 -40 -15 c-25 -9 -78 -15 -140 -16 -84 -1 -108 3 -150 22 -65
30 -108 73 -137 136 -20 45 -23 67 -23 176 0 113 2 130 25 175 70 143 216 201
398 160z m507 -82 c-19 -54 -75 -208 -124 -343 l-89 -245 -81 -3 -81 -3 11 28
c8 22 126 346 231 636 10 26 12 27 89 27 l79 0 -35 -97z m-1027 -60 l-3 -66
-132 -60 c-73 -33 -131 -63 -128 -66 2 -4 63 -31 134 -60 l131 -54 0 -63 c0
-35 -4 -64 -8 -64 -4 0 -107 44 -227 98 l-220 97 -3 40 -3 40 223 112 c123 61
227 112 231 112 4 1 7 -29 5 -66z m1337 -46 l220 -112 0 -39 0 -39 -220 -98
c-121 -54 -226 -99 -232 -99 -9 0 -13 19 -13 63 l0 64 136 53 c74 30 137 56
139 60 2 3 -59 34 -136 69 l-139 63 0 64 c0 45 4 64 13 64 6 -1 111 -51 232
-113z"/>
</g>
</svg>
