<?xml version="1.0" standalone="no"?>
<!DOCTYPE svg PUBLIC "-//W3C//DTD SVG 20010904//EN"
 "http://www.w3.org/TR/2001/REC-SVG-20010904/DTD/svg10.dtd">
<svg version="1.0" xmlns="http://www.w3.org/2000/svg"
 width="460.000000pt" height="173.000000pt" viewBox="0 0 460.000000 173.000000"
 preserveAspectRatio="xMidYMid meet">

<g transform="translate(0.000000,173.000000) scale(0.100000,-0.100000)"
fill="#000000" stroke="none">
<path d="M880 1471 c-14 -10 -45 -29 -70 -42 -25 -14 -111 -63 -193 -109 -81
-47 -168 -97 -193 -111 -78 -45 -73 -21 -80 -364 -3 -171 -2 -320 3 -332 5
-15 97 -76 268 -179 143 -86 271 -160 283 -165 31 -12 79 10 225 99 62 38 167
101 234 140 67 40 129 82 137 94 14 19 16 68 16 333 0 170 -4 315 -8 321 -4 6
-50 34 -102 64 -52 29 -111 63 -130 75 -19 13 -62 37 -95 55 -32 17 -71 39
-85 49 -43 30 -160 91 -173 91 -7 0 -23 -9 -37 -19z m80 -51 c0 -5 5 -10 11
-10 7 0 49 -22 93 -49 45 -27 104 -61 131 -76 106 -58 208 -121 230 -141 22
-20 22 -21 18 -314 -3 -253 -5 -296 -19 -311 -9 -10 -78 -53 -153 -95 -75 -43
-170 -99 -212 -124 -42 -26 -92 -53 -111 -60 -35 -13 -38 -12 -134 45 -55 32
-117 71 -139 85 -22 15 -85 57 -141 92 l-101 65 5 105 c2 58 0 127 -7 155 -6
29 -13 118 -17 200 l-7 149 49 31 c27 17 77 46 110 65 34 18 115 65 180 103
65 39 128 75 139 82 25 14 75 16 75 3z"/>
<path d="M1870 980 c-94 -12 -140 -65 -140 -161 0 -126 111 -200 224 -151 48
22 57 40 31 62 -12 10 -21 10 -41 1 -43 -19 -98 -14 -123 13 -73 77 -1 215 93
177 58 -24 64 -24 76 -1 7 12 8 26 3 31 -21 21 -80 35 -123 29z"/>
<path d="M2145 965 c-43 -20 -65 -40 -65 -58 0 -9 -4 -19 -10 -22 -14 -9 -12
-121 3 -147 27 -48 88 -87 137 -87 162 -1 232 215 97 302 -47 31 -112 36 -162
12z m101 -47 c63 -23 86 -119 41 -172 -75 -87 -196 6 -155 120 9 25 23 41 43
50 37 16 32 16 71 2z"/>
<path d="M2452 819 l3 -164 44 -3 c105 -8 201 71 201 165 0 99 -56 151 -174
160 l-77 6 3 -164z m122 95 c62 -30 77 -116 29 -166 -28 -29 -82 -39 -84 -15
-2 42 3 182 7 189 7 11 8 10 48 -8z"/>
<path d="M2765 933 c-7 -52 -5 -211 3 -256 4 -23 9 -28 31 -25 l26 3 3 163 2
162 -29 0 c-27 0 -30 -3 -36 -47z"/>
<path d="M2907 974 c-4 -4 -7 -76 -7 -160 l0 -152 38 -6 c20 -3 60 -4 87 -2
48 2 50 4 50 32 0 28 -2 29 -52 32 l-52 3 -3 127 -3 127 -25 3 c-14 2 -29 0
-33 -4z"/>
<path d="M3215 933 c-9 -27 -37 -97 -61 -158 l-43 -110 29 -3 c19 -2 36 4 49
17 27 27 75 27 101 1 11 -11 33 -20 50 -20 28 0 30 2 24 28 -4 15 -13 39 -20
53 -7 15 -25 57 -39 95 -14 38 -29 78 -34 89 -5 11 -12 28 -15 38 -9 29 -22
19 -41 -30z m49 -155 c6 -25 3 -28 -17 -28 -34 0 -38 9 -21 42 17 33 28 29 38
-14z"/>
<path d="M3420 958 c-3 -158 1 -293 9 -301 5 -5 18 -6 30 -2 17 5 21 16 23 68
4 85 25 87 58 7 14 -34 31 -66 37 -72 16 -13 66 -1 60 15 -3 7 -16 35 -28 63
l-22 52 27 34 c30 40 33 78 10 113 -20 31 -63 45 -140 45 -60 0 -64 -2 -64
-22z m143 -59 c18 -29 1 -49 -43 -49 -37 0 -40 2 -40 28 0 16 3 32 7 36 12 12
66 2 76 -15z"/>
<path d="M3705 968 c-3 -8 -4 -81 -3 -163 l3 -150 30 0 30 0 0 160 0 160 -28
3 c-16 2 -29 -2 -32 -10z"/>
<path d="M3817 973 c-4 -3 -7 -15 -7 -25 0 -15 16 -23 42 -20 19 3 28 -37 30
-149 l3 -124 25 0 25 0 2 115 c4 147 7 160 38 160 20 0 25 5 25 25 0 25 -1 25
-88 25 -49 0 -92 -3 -95 -7z"/>
<path d="M4031 973 c0 -8 13 -27 76 -115 28 -39 32 -55 35 -118 2 -56 7 -75
20 -84 27 -17 39 4 42 76 3 69 25 120 88 199 15 20 28 40 28 43 0 3 -15 6 -33
6 -28 0 -38 -8 -70 -50 -21 -27 -41 -50 -45 -50 -4 0 -22 23 -40 50 -28 44
-36 50 -67 50 -19 0 -35 -3 -34 -7z"/>
</g>
</svg>
